<svg xmlns="http://www.w3.org/2000/svg" xmlns:xlink="http://www.w3.org/1999/xlink" version="1.1" width="707pt" height="345pt" viewBox="0 0 707 345">
<path transform="matrix(1,0,0,-1,0,345)" d="M0 345H707V0H0V345Z" fill="#ffffff"/>
<path transform="matrix(1,0,0,-1,66.74701,287.67994)" d="M-.5 243.34986V-.000031H.5V243.34986H-.5Z" fill="#cdcdcd"/>
<path transform="matrix(1,0,0,-1,216.033,287.67994)" d="M-.5 243.34986V-.000031H.5V243.34986H-.5Z" fill="#cdcdcd"/>
<path transform="matrix(1,0,0,-1,364.074,287.67994)" d="M-.5 243.34986V-.000031H.5V243.34986H-.5Z" fill="#cdcdcd"/>
<path transform="matrix(1,0,0,-1,513.36,287.67994)" d="M-.5 243.34986V-.000031H.5V243.34986H-.5Z" fill="#cdcdcd"/>
<path transform="matrix(1,0,0,-1,662.646,287.67994)" d="M-.5 243.34986V-.000031H.5V243.34986H-.5Z" fill="#cdcdcd"/>
<path transform="matrix(1,0,0,-1,67.36902,289.11305)" d="M0 .5H594.65499V1.5H0V.5Z" fill="#cdcdcd"/>
<path transform="matrix(1,0,0,-1,67.36902,258.802)" d="M0 .5H594.65499V1.5H0V.5Z" fill="#cdcdcd"/>
<path transform="matrix(1,0,0,-1,67.36902,228.492)" d="M0 .5H594.65499V1.5H0V.5Z" fill="#cdcdcd"/>
<path transform="matrix(1,0,0,-1,67.36902,198.18103)" d="M0 .5H594.65499V1.5H0V.5Z" fill="#cdcdcd"/>
<path transform="matrix(1,0,0,-1,67.36902,167.87097)" d="M0 .5H594.65499V1.5H0V.5Z" fill="#cdcdcd"/>
<path transform="matrix(1,0,0,-1,67.36902,136.69397)" d="M0 .5H594.65499V1.5H0V.5Z" fill="#cdcdcd"/>
<path transform="matrix(1,0,0,-1,67.36902,106.38403)" d="M0 .5H594.65499V1.5H0V.5Z" fill="#cdcdcd"/>
<path transform="matrix(1,0,0,-1,67.36902,76.07349)" d="M0 .5H594.65499V1.5H0V.5Z" fill="#cdcdcd"/>
<path transform="matrix(1,0,0,-1,67.36902,44.897096)" d="M0 .5H594.65499V1.5H0V.5Z" fill="#cdcdcd"/>
<path transform="matrix(1,0,0,-1,67.36902,289.11305)" d="M0 .5H594.65499V1.5H0V.5Z" fill="#cdcdcd"/>
<path transform="matrix(1,0,0,-1,66.74701,287.67994)" d="M-.5 243.34986V-.000031H.5V243.34986H-.5Z" fill="#cdcdcd"/>
<path transform="matrix(1,0,0,-1,58.106294,303.706)" d="M3.208 7.208008V.097992H2.2803V7.208008H3.208ZM5.493198 7.208008V6.436005H0V7.208008H5.493198ZM8.115303 0C7.747403 0 7.413796 .062005 7.114296 .186005 6.818096 .313004 6.562502 .489987 6.347702 .717987 6.136102 .945987 5.973298 1.215991 5.859398 1.528992 5.745498 1.840991 5.688499 2.182986 5.688499 2.553986V2.759003C5.688499 3.189003 5.751998 3.570982 5.878899 3.906982 6.005898 4.244983 6.1784 4.531991 6.3965 4.765991 6.6146 4.999991 6.862002 5.178004 7.138702 5.298004 7.415402 5.419004 7.7019 5.479004 7.9981 5.479004 8.3757 5.479004 8.701201 5.413997 8.974602 5.283997 9.251302 5.152997 9.477596 4.971 9.653397 4.737 9.829097 4.506 9.959299 4.231992 10.043999 3.916992 10.128599 3.603992 10.170898 3.261991 10.170898 2.890991V2.485992H6.225601V3.222992H9.267601V3.291992C9.254601 3.525992 9.205801 3.754006 9.121101 3.975006 9.039802 4.196006 8.909499 4.379003 8.730499 4.522003 8.551499 4.665003 8.307301 4.737 7.9981 4.737 7.793 4.737 7.604202 4.692981 7.431702 4.60498 7.259202 4.51998 7.110997 4.392999 6.987297 4.223999 6.863597 4.054999 6.767602 3.848004 6.699303 3.604004 6.630903 3.360004 6.596703 3.078003 6.596703 2.759003V2.553986C6.596703 2.303986 6.630903 2.068008 6.699303 1.846008 6.770903 1.628008 6.873397 1.435989 7.006897 1.269989 7.143597 1.103989 7.308 .973998 7.5 .878998 7.6954 .784998 7.916701 .738007 8.164101 .738007 8.483101 .738007 8.753302 .802983 8.974602 .932983 9.196002 1.062984 9.389702 1.236994 9.555702 1.455994L10.1026 1.020996C9.9886 .847996 9.8438 .683985 9.667999 .527985 9.492199 .371984 9.275801 .245003 9.0186 .147003 8.764701 .049003 8.463603 0 8.115303 0ZM11.835999 5.380981 12.993202 3.458008 14.1651 5.380981H15.224602L13.496101 2.773987 15.278397 .097992H14.233398L13.012703 2.080994 11.792 .097992H10.742203L12.5196 2.773987 10.795898 5.380981H11.835999ZM18.398499 5.380981V4.687988H15.542V5.380981H18.398499ZM16.508797 6.665985H17.412102V1.406982C17.412102 1.227983 17.4398 1.093007 17.495202 1.001007 17.5505 .910007 17.622099 .849984 17.71 .820984 17.7979 .791984 17.892302 .777008 17.993203 .777008 18.068102 .777008 18.1462 .78299 18.2276 .79599 18.3122 .81299 18.3757 .825992 18.418 .834991L18.422898 .097992C18.351298 .074992 18.256903 .054004 18.139702 .035004 18.025803 .012004 17.887402 0 17.724602 0 17.503302 0 17.299796 .043989 17.114296 .131989 16.928696 .219988 16.780598 .366991 16.669999 .571991 16.562499 .779991 16.508797 1.059987 16.508797 1.411987V6.665985Z"/>
<path transform="matrix(1,0,0,-1,206.77,303.706)" d="M3.207993 7.208008V.097992H2.279999V7.208008H3.207993ZM5.492996 7.208008V6.436005H0V7.208008H5.492996ZM8.11499 0C7.74699 0 7.413999 .062005 7.113998 .186005 6.817998 .313004 6.562992 .489987 6.347992 .717987 6.135992 .945987 5.972993 1.215991 5.858994 1.528992 5.744994 1.840991 5.687988 2.182986 5.687988 2.553986V2.759003C5.687988 3.189003 5.751998 3.570982 5.878998 3.906982 6.005998 4.244983 6.177996 4.531991 6.395996 4.765991 6.614996 4.999991 6.861992 5.178004 7.138992 5.298004 7.414992 5.419004 7.702001 5.479004 7.998001 5.479004 8.376001 5.479004 8.700991 5.413997 8.974991 5.283997 9.250991 5.152997 9.478 4.971 9.653 4.737 9.829 4.506 9.958991 4.231992 10.043991 3.916992 10.128991 3.603992 10.17099 3.261991 10.17099 2.890991V2.485992H6.225998V3.222992H9.26799V3.291992C9.254991 3.525992 9.206002 3.754006 9.121002 3.975006 9.040002 4.196006 8.909996 4.379003 8.729996 4.522003 8.550996 4.665003 8.307001 4.737 7.998001 4.737 7.793001 4.737 7.603992 4.692981 7.431992 4.60498 7.258992 4.51998 7.111 4.392999 6.987 4.223999 6.863999 4.054999 6.76799 3.848004 6.69899 3.604004 6.63099 3.360004 6.597 3.078003 6.597 2.759003V2.553986C6.597 2.303986 6.63099 2.068008 6.69899 1.846008 6.77099 1.628008 6.872989 1.435989 7.006989 1.269989 7.143989 1.103989 7.308 .973998 7.5 .878998 7.695 .784998 7.917001 .738007 8.164001 .738007 8.483002 .738007 8.752991 .802983 8.974991 .932983 9.195991 1.062984 9.389999 1.236994 9.556 1.455994L10.102997 1.020996C9.988997 .847996 9.843999 .683985 9.667999 .527985 9.492 .371984 9.275997 .245003 9.018997 .147003 8.764997 .049003 8.46399 0 8.11499 0ZM11.835999 5.380981 12.992996 3.458008 14.164993 5.380981H15.224991L13.496002 2.773987 15.278 .097992H14.233002L13.013 2.080994 11.791992 .097992H10.741989L12.519989 2.773987 10.79599 5.380981H11.835999ZM18.397995 5.380981V4.687988H15.541992V5.380981H18.397995ZM16.509003 6.665985H17.412003V1.406982C17.412003 1.227983 17.439995 1.093007 17.494996 1.001007 17.549996 .910007 17.621993 .849984 17.709992 .820984 17.79799 .791984 17.891997 .777008 17.992997 .777008 18.067997 .777008 18.145997 .78299 18.227997 .79599 18.311997 .81299 18.376 .825992 18.418 .834991L18.422989 .097992C18.350989 .074992 18.257 .054004 18.14 .035004 18.026 .012004 17.886992 0 17.72499 0 17.50299 0 17.3 .043989 17.113999 .131989 16.928999 .219988 16.780999 .366991 16.669999 .571991 16.562998 .779991 16.509003 1.059987 16.509003 1.411987V6.665985Z"/>
<path transform="matrix(1,0,0,-1,355.434,303.706)" d="M3.208008 7.208008V.097992H2.279999V7.208008H3.208008ZM5.493011 7.208008V6.436005H0V7.208008H5.493011ZM8.115021 0C7.747021 0 7.413013 .062005 7.114014 .186005 6.818014 .313004 6.562016 .489987 6.347015 .717987 6.136015 .945987 5.973009 1.215991 5.859009 1.528992 5.745009 1.840991 5.688019 2.182986 5.688019 2.553986V2.759003C5.688019 3.189003 5.751998 3.570982 5.878998 3.906982 6.005998 4.244983 6.177996 4.531991 6.395996 4.765991 6.613996 4.999991 6.862 5.178004 7.138 5.298004 7.415 5.419004 7.702016 5.479004 7.998016 5.479004 8.375016 5.479004 8.700999 5.413997 8.973999 5.283997 9.250999 5.152997 9.477015 4.971 9.653015 4.737 9.829015 4.506 9.959006 4.231992 10.044006 3.916992 10.128006 3.603992 10.171021 3.261991 10.171021 2.890991V2.485992H6.225006V3.222992H9.266998V3.291992C9.253999 3.525992 9.205002 3.754006 9.121002 3.975006 9.039002 4.196006 8.909011 4.379003 8.730011 4.522003 8.551011 4.665003 8.307016 4.737 7.998016 4.737 7.793016 4.737 7.604 4.692981 7.431 4.60498 7.259 4.51998 7.111 4.392999 6.987 4.223999 6.862999 4.054999 6.767005 3.848004 6.699005 3.604004 6.631005 3.360004 6.596008 3.078003 6.596008 2.759003V2.553986C6.596008 2.303986 6.631005 2.068008 6.699005 1.846008 6.771005 1.628008 6.873019 1.435989 7.007019 1.269989 7.143019 1.103989 7.308 .973998 7.5 .878998 7.695 .784998 7.916001 .738007 8.164001 .738007 8.483002 .738007 8.752999 .802983 8.973999 .932983 9.195999 1.062984 9.389023 1.236994 9.555023 1.455994L10.10202 1.020996C9.98802 .847996 9.843999 .683985 9.667999 .527985 9.492 .371984 9.275005 .245003 9.018005 .147003 8.764006 .049003 8.46302 0 8.115021 0ZM11.835999 5.380981 12.993011 3.458008 14.165009 5.380981H15.223999L13.496002 2.773987 15.278015 .097992H14.233002L13.012024 2.080994 11.792023 .097992H10.742004L12.519012 2.773987 10.796021 5.380981H11.835999ZM18.39801 5.380981V4.687988H15.542023V5.380981H18.39801ZM16.509003 6.665985H17.412018V1.406982C17.412018 1.227983 17.439995 1.093007 17.494996 1.001007 17.549996 .910007 17.622023 .849984 17.710022 .820984 17.798022 .791984 17.892012 .777008 17.993012 .777008 18.068013 .777008 18.14602 .78299 18.22702 .79599 18.31202 .81299 18.375 .825992 18.418 .834991L18.423005 .097992C18.351004 .074992 18.257008 .054004 18.139008 .035004 18.025008 .012004 17.887 0 17.723999 0 17.502999 0 17.300015 .043989 17.114014 .131989 16.928013 .219988 16.780014 .366991 16.670014 .571991 16.562014 .779991 16.509003 1.059987 16.509003 1.411987V6.665985Z"/>
<path transform="matrix(1,0,0,-1,504.097,303.706)" d="M3.208008 7.208008V.097992H2.281006V7.208008H3.208008ZM5.494019 7.208008V6.436005H0V7.208008H5.494019ZM8.116028 0C7.748028 0 7.414021 .062005 7.115021 .186005 6.818021 .313004 6.563023 .489987 6.348022 .717987 6.137022 .945987 5.974016 1.215991 5.860016 1.528992 5.746016 1.840991 5.689026 2.182986 5.689026 2.553986V2.759003C5.689026 3.189003 5.752028 3.570982 5.879028 3.906982 6.006028 4.244983 6.179003 4.531991 6.397003 4.765991 6.615003 4.999991 6.862008 5.178004 7.139008 5.298004 7.416008 5.419004 7.702024 5.479004 7.999023 5.479004 8.376023 5.479004 8.702037 5.413997 8.975037 5.283997 9.252037 5.152997 9.477992 4.971 9.653992 4.737 9.829991 4.506 9.960007 4.231992 10.044006 3.916992 10.129006 3.603992 10.171021 3.261991 10.171021 2.890991V2.485992H6.226013V3.222992H9.268005V3.291992C9.255006 3.525992 9.206009 3.754006 9.122009 3.975006 9.040009 4.196006 8.910018 4.379003 8.731018 4.522003 8.552018 4.665003 8.308023 4.737 7.999023 4.737 7.793024 4.737 7.605007 4.692981 7.432007 4.60498 7.260007 4.51998 7.111007 4.392999 6.988007 4.223999 6.864007 4.054999 6.768012 3.848004 6.700012 3.604004 6.631012 3.360004 6.597015 3.078003 6.597015 2.759003V2.553986C6.597015 2.303986 6.631012 2.068008 6.700012 1.846008 6.771012 1.628008 6.874019 1.435989 7.007019 1.269989 7.144019 1.103989 7.308 .973998 7.5 .878998 7.696 .784998 7.917039 .738007 8.165039 .738007 8.484039 .738007 8.754037 .802983 8.975037 .932983 9.196036 1.062984 9.39003 1.236994 9.55603 1.455994L10.103027 1.020996C9.989027 .847996 9.844029 .683985 9.66803 .527985 9.49303 .371984 9.276043 .245003 9.019043 .147003 8.765043 .049003 8.464027 0 8.116028 0ZM11.835999 5.380981 12.994019 3.458008 14.165039 5.380981H15.225037L13.497009 2.773987 15.278992 .097992H14.234009L13.013 2.080994 11.791992 .097992H10.743042L12.52002 2.773987 10.796021 5.380981H11.835999ZM18.398987 5.380981V4.687988H15.541992V5.380981H18.398987ZM16.509034 6.665985H17.413025V1.406982C17.413025 1.227983 17.440033 1.093007 17.496033 1.001007 17.551033 .910007 17.623023 .849984 17.710022 .820984 17.798022 .791984 17.893019 .777008 17.994019 .777008 18.068018 .777008 18.147028 .78299 18.228028 .79599 18.313027 .81299 18.37603 .825992 18.41803 .834991L18.423035 .097992C18.352036 .074992 18.257016 .054004 18.140015 .035004 18.026015 .012004 17.888037 0 17.725037 0 17.504036 0 17.29999 .043989 17.11499 .131989 16.92899 .219988 16.781044 .366991 16.670044 .571991 16.563044 .779991 16.509034 1.059987 16.509034 1.411987V6.665985Z"/>
<path transform="matrix(1,0,0,-1,640.593,303.706)" d="M3.208008 7.208008V.097992H2.281006V7.208008H3.208008ZM5.493958 7.208008V6.436005H0V7.208008H5.493958ZM8.115967 0C7.747967 0 7.41399 .062005 7.11499 .186005 6.81799 .313004 6.562962 .489987 6.347961 .717987 6.135962 .945987 5.973985 1.215991 5.859985 1.528992 5.745986 1.840991 5.688965 2.182986 5.688965 2.553986V2.759003C5.688965 3.189003 5.751967 3.570982 5.878967 3.906982 6.005967 4.244983 6.178973 4.531991 6.396973 4.765991 6.614973 4.999991 6.861977 5.178004 7.138977 5.298004 7.415977 5.419004 7.701986 5.479004 7.997986 5.479004 8.375986 5.479004 8.701976 5.413997 8.974976 5.283997 9.251976 5.152997 9.477992 4.971 9.653992 4.737 9.828992 4.506 9.960007 4.231992 10.044006 3.916992 10.129006 3.603992 10.170959 3.261991 10.170959 2.890991V2.485992H6.225952V3.222992H9.268005V3.291992C9.255006 3.525992 9.205972 3.754006 9.120972 3.975006 9.039971 4.196006 8.909957 4.379003 8.730957 4.522003 8.551957 4.665003 8.307986 4.737 7.997986 4.737 7.792986 4.737 7.605007 4.692981 7.432007 4.60498 7.259007 4.51998 7.110976 4.392999 6.987976 4.223999 6.863976 4.054999 6.768012 3.848004 6.700012 3.604004 6.631012 3.360004 6.596985 3.078003 6.596985 2.759003V2.553986C6.596985 2.303986 6.631012 2.068008 6.700012 1.846008 6.771012 1.628008 6.873958 1.435989 7.006958 1.269989 7.143958 1.103989 7.308 .973998 7.5 .878998 7.696 .784998 7.917001 .738007 8.164001 .738007 8.483002 .738007 8.753976 .802983 8.974976 .932983 9.195975 1.062984 9.389969 1.236994 9.555969 1.455994L10.102966 1.020996C9.988966 .847996 9.843968 .683985 9.667969 .527985 9.492969 .371984 9.275982 .245003 9.018982 .147003 8.764982 .049003 8.463966 0 8.115967 0ZM11.835999 5.380981 12.993958 3.458008 14.164978 5.380981H15.224976L13.495972 2.773987 15.278992 .097992H14.234009L13.013 2.080994 11.791992 .097992H10.742981L12.519958 2.773987 10.795959 5.380981H11.835999ZM18.398987 5.380981V4.687988H15.541992V5.380981H18.398987ZM16.508973 6.665985H17.411988V1.406982C17.411988 1.227983 17.439995 1.093007 17.494996 1.001007 17.550995 .910007 17.621962 .849984 17.70996 .820984 17.79796 .791984 17.892958 .777008 17.993958 .777008 18.067957 .777008 18.146967 .78299 18.227967 .79599 18.312966 .81299 18.375969 .825992 18.417969 .834991L18.422974 .097992C18.351975 .074992 18.256955 .054004 18.139954 .035004 18.025954 .012004 17.887976 0 17.724976 0 17.503975 0 17.29999 .043989 17.11499 .131989 16.92899 .219988 16.780983 .366991 16.669983 .571991 16.562983 .779991 16.508973 1.059987 16.508973 1.411987V6.665985Z"/>
<path transform="matrix(1,0,0,-1,44.51349,292.44703)" d="M2.724598 7.246033V.097015H1.821301V6.118011L0 5.45401V6.269012L2.583 7.246033H2.724598ZM8.847698 7.216034H8.9258V6.450012H8.847698C8.369198 6.450012 7.9688 6.372027 7.6465 6.215027 7.3243 6.062027 7.068698 5.856032 6.879898 5.595032 6.691098 5.338032 6.554399 5.048013 6.469799 4.726013 6.388399 4.404013 6.347698 4.077025 6.347698 3.745026V2.700012C6.347698 2.384012 6.385099 2.104016 6.459999 1.860016 6.534899 1.619016 6.637401 1.41603 6.767601 1.250031 6.897801 1.084031 7.0443 .958024 7.2071 .874023 7.3731 .789023 7.545598 .747009 7.724598 .747009 7.932998 .747009 8.1185 .786014 8.2813 .864014 8.443999 .945014 8.580798 1.058019 8.691399 1.201019 8.805399 1.347019 8.891599 1.520018 8.950199 1.718018 9.0088 1.917017 9.038101 2.135016 9.038101 2.373016 9.038101 2.584016 9.012099 2.788032 8.959999 2.983032 8.907899 3.182032 8.828199 3.35701 8.720699 3.51001 8.613299 3.66701 8.478198 3.789014 8.315498 3.877014 8.155998 3.968014 7.965502 4.013031 7.744202 4.013031 7.493502 4.013031 7.2591 3.951033 7.041 3.828033 6.8262 3.707033 6.6488 3.548029 6.508801 3.34903 6.3721 3.154029 6.293999 2.941022 6.274399 2.710022L5.795898 2.715027C5.841498 3.079027 5.926101 3.390034 6.049801 3.647034 6.176801 3.908034 6.333001 4.119013 6.5186 4.282013 6.7074 4.448013 6.917298 4.568036 7.148499 4.643036 7.382799 4.721036 7.630201 4.76001 7.890701 4.76001 8.245502 4.76001 8.551501 4.694028 8.808601 4.560028 9.065802 4.427028 9.277401 4.24801 9.443401 4.02301 9.609402 3.80201 9.731501 3.551027 9.809601 3.271027 9.891001 2.994027 9.931702 2.710023 9.931702 2.417023 9.931702 2.081023 9.884501 1.76703 9.7901 1.47403 9.6957 1.181029 9.554099 .924034 9.365299 .703033 9.179699 .481033 8.9502 .309028 8.6768 .185028 8.403399 .062028 8.085998 .000031 7.724598 .000031 7.340498 .000031 7.005199 .078009 6.7188 .234009 6.4323 .394009 6.194701 .605019 6.005901 .869019 5.817101 1.132019 5.6755 1.425016 5.5811 1.748016 5.486701 2.070016 5.439499 2.397035 5.439499 2.729034V3.154022C5.439499 3.655022 5.489901 4.147028 5.5909 4.629028 5.691801 5.110028 5.865901 5.547012 6.1133 5.937012 6.364 6.328012 6.7106 6.639026 7.1534 6.870026 7.5961 7.101026 8.160798 7.216034 8.847698 7.216034Z"/>
<path transform="matrix(1,0,0,-1,44.51349,261.271)" d="M2.724598 7.246002V.097992H1.821301V6.117996L0 5.453995V6.269989L2.583 7.246002H2.724598ZM9.8633 2.022003C9.8633 1.589003 9.762401 1.220999 9.5606 .917999 9.362 .618999 9.0918 .390985 8.75 .234985 8.4115 .077985 8.029 0 7.6026 0 7.1761 0 6.791999 .077985 6.450199 .234985 6.108399 .390985 5.838198 .618999 5.639698 .917999 5.441098 1.220999 5.341801 1.589003 5.341801 2.022003 5.341801 2.305003 5.395498 2.564004 5.502998 2.798004 5.613598 3.036004 5.768301 3.241999 5.966801 3.417999 6.168701 3.593999 6.406299 3.728998 6.679699 3.822998 6.956399 3.920998 7.2608 3.970001 7.5928 3.970001 8.029 3.970001 8.418 3.885003 8.7598 3.716003 9.1016 3.550004 9.370098 3.319985 9.565498 3.027985 9.763998 2.734984 9.8633 2.399003 9.8633 2.022003ZM8.955101 2.040985C8.955101 2.304985 8.898099 2.537983 8.784199 2.738983 8.670299 2.943983 8.510798 3.103987 8.305698 3.217987 8.100598 3.331987 7.863 3.389008 7.5928 3.389008 7.3161 3.389008 7.0769 3.331987 6.875 3.217987 6.6765 3.103987 6.521801 2.943983 6.411201 2.738983 6.300501 2.537983 6.245098 2.304985 6.245098 2.040985 6.245098 1.767985 6.2989 1.532982 6.4063 1.337982 6.517 1.145982 6.6732 .997982 6.875 .893982 7.0801 .792982 7.3226 .742004 7.6026 .742004 7.8825 .742004 8.123399 .792982 8.325199 .893982 8.526999 .997982 8.681701 1.145982 8.789101 1.337982 8.8998 1.532982 8.955101 1.767985 8.955101 2.040985ZM9.6973 5.356995C9.6973 5.011994 9.6062 4.701011 9.423901 4.424011 9.241601 4.147011 8.992499 3.928989 8.6768 3.769989 8.361 3.609989 8.003 3.529999 7.6026 3.529999 7.1957 3.529999 6.832699 3.609989 6.513699 3.769989 6.197898 3.928989 5.9506 4.147011 5.7715 4.424011 5.5925 4.701011 5.502998 5.011994 5.502998 5.356995 5.502998 5.769995 5.5925 6.121995 5.7715 6.410995 5.9538 6.700995 6.2028 6.921997 6.5186 7.074997 6.834301 7.227997 7.193998 7.304993 7.597698 7.304993 8.004599 7.304993 8.365902 7.227997 8.681702 7.074997 8.997401 6.921997 9.244801 6.700995 9.423901 6.410995 9.6062 6.121995 9.6973 5.769995 9.6973 5.356995ZM8.793999 5.341995C8.793999 5.579995 8.743501 5.79 8.642601 5.972 8.541701 6.154 8.401698 6.296993 8.222698 6.401993 8.043698 6.508993 7.835298 6.563004 7.597698 6.563004 7.360098 6.563004 7.151698 6.511995 6.972698 6.410995 6.796898 6.313995 6.658598 6.173997 6.557598 5.990997 6.459998 5.808997 6.411201 5.592995 6.411201 5.341995 6.411201 5.097995 6.459998 4.884996 6.557598 4.701996 6.658598 4.519996 6.7985 4.377985 6.9776 4.277985 7.1566 4.176985 7.3649 4.126007 7.6026 4.126007 7.8402 4.126007 8.046898 4.176985 8.222698 4.277985 8.401698 4.377985 8.541701 4.519996 8.642601 4.701996 8.743501 4.884996 8.793999 5.097995 8.793999 5.341995Z"/>
<path transform="matrix(1,0,0,-1,44.137605,230.96002)" d="M4.790001 .83902V.097015H.1367V.747025L2.465801 3.33902C2.752201 3.65802 2.973599 3.929024 3.129799 4.150024 3.289299 4.375024 3.399999 4.575022 3.461899 4.751022 3.526999 4.930022 3.559502 5.112028 3.559502 5.297028 3.559502 5.532028 3.510698 5.743022 3.412998 5.932022 3.318598 6.124022 3.178699 6.277022 2.993099 6.391022 2.807599 6.505022 2.583002 6.562027 2.319302 6.562027 2.003502 6.562027 1.739901 6.50003 1.528301 6.377029 1.319901 6.256029 1.163702 6.087018 1.059502 5.869019 .955402 5.651019 .903301 5.40002 .903301 5.11702H0C0 5.51702 .087799 5.883027 .263599 6.215027 .439399 6.547027 .699799 6.811027 1.044899 7.006027 1.389899 7.205027 1.814702 7.304016 2.319302 7.304016 2.768502 7.304016 3.1526 7.225018 3.4716 7.065018 3.7906 6.909018 4.034801 6.687016 4.204102 6.401016 4.376602 6.118016 4.462799 5.786029 4.462799 5.405029 4.462799 5.197029 4.427 4.98502 4.3554 4.77002 4.2871 4.55902 4.190999 4.347025 4.067299 4.135025 3.946899 3.924025 3.805302 3.715025 3.642502 3.510025 3.483002 3.305025 3.312099 3.103029 3.129799 2.905029L1.225498 .83902H4.790001ZM10.2197 4.218018V3.134018C10.2197 2.552018 10.167601 2.060019 10.0634 1.660019 9.9593 1.259019 9.809501 .937024 9.614201 .693024 9.4189 .449024 9.1829 .271026 8.9062 .161026 8.6328 .053026 8.323501 .000015 7.9785 .000015 7.705 .000015 7.4528 .03402 7.2216 .10202 6.990499 .17002 6.782199 .280016 6.5966 .429016 6.414299 .582016 6.258099 .781024 6.127899 1.025024 5.997699 1.269024 5.898402 1.565017 5.830002 1.914017 5.761702 2.262017 5.727501 2.669018 5.727501 3.134018V4.218018C5.727501 4.801018 5.779601 5.289029 5.883701 5.683029 5.991201 6.077029 6.142499 6.39302 6.337799 6.63002 6.533199 6.87102 6.7675 7.044025 7.041 7.148026 7.3177 7.252026 7.6269 7.304016 7.9687 7.304016 8.2454 7.304016 8.4993 7.270026 8.7304 7.202026 8.9648 7.137026 9.1731 7.031018 9.3554 6.884018 9.5377 6.741018 9.692302 6.549029 9.819302 6.308029 9.949502 6.071029 10.0488 5.779021 10.1171 5.434021 10.1855 5.089021 10.2197 4.684018 10.2197 4.218018ZM9.311501 2.988022V4.370026C9.311501 4.689026 9.291899 4.969022 9.252899 5.210022 9.217099 5.454022 9.163401 5.662022 9.091801 5.835022 9.020101 6.007022 8.928998 6.147028 8.818298 6.254028 8.710898 6.362028 8.585599 6.440029 8.442299 6.489029 8.302399 6.541029 8.144501 6.567017 7.9687 6.567017 7.753901 6.567017 7.5634 6.526022 7.3974 6.445023 7.2314 6.367023 7.091401 6.241015 6.977501 6.069016 6.866801 5.896016 6.782198 5.670014 6.723598 5.390015 6.664999 5.110015 6.6357 4.770026 6.6357 4.370026V2.988022C6.6357 2.669022 6.6536 2.387021 6.6894 2.143021 6.7285 1.899021 6.785398 1.687026 6.860298 1.508026 6.935198 1.333026 7.026301 1.18802 7.133701 1.07402 7.241201 .960021 7.364899 .875022 7.504799 .820023 7.648099 .768023 7.805901 .74202 7.9785 .74202 8.1998 .74202 8.393501 .784019 8.559502 .869019 8.725502 .953019 8.863902 1.085023 8.974602 1.264023 9.088502 1.447023 9.1731 1.679021 9.2285 1.962021 9.2838 2.249021 9.311501 2.591022 9.311501 2.988022Z"/>
<path transform="matrix(1,0,0,-1,44.137605,200.552)" d="M4.790001 .742035V.000031H.1367V.649033L2.465801 3.242035C2.752201 3.561035 2.973599 3.831033 3.129799 4.052032 3.289299 4.277032 3.399999 4.47703 3.461899 4.65303 3.526999 4.83203 3.559502 5.014028 3.559502 5.200027 3.559502 5.434028 3.510698 5.646037 3.412998 5.835037 3.318598 6.027037 3.178699 6.180037 2.993099 6.294037 2.807599 6.408037 2.583002 6.465027 2.319302 6.465027 2.003502 6.465027 1.739901 6.403038 1.528301 6.279037 1.319901 6.159038 1.163702 5.989027 1.059502 5.771027 .955402 5.553027 .903301 5.302028 .903301 5.019028H0C0 5.420028 .087799 5.786027 .263599 6.118027 .439399 6.450027 .699799 6.714027 1.044899 6.909027 1.389899 7.107027 1.814702 7.207031 2.319302 7.207031 2.768502 7.207031 3.1526 7.127026 3.4716 6.967026 3.7906 6.811026 4.034801 6.59004 4.204102 6.30304 4.376602 6.02004 4.462799 5.688037 4.462799 5.307037 4.462799 5.099037 4.427 4.887034 4.3554 4.673035 4.2871 4.461035 4.190999 4.249025 4.067299 4.038025 3.946899 3.826025 3.805302 3.618025 3.642502 3.413025 3.483002 3.208025 3.312099 3.006037 3.129799 2.807037L1.225498 .742035H4.790001ZM10.415001 .742035V.000031H5.7617V.649033L8.090801 3.242035C8.377201 3.561035 8.598598 3.831033 8.754799 4.052032 8.914299 4.277032 9.024999 4.47703 9.086899 4.65303 9.151999 4.83203 9.184502 5.014028 9.184502 5.200027 9.184502 5.434028 9.135698 5.646037 9.037998 5.835037 8.943598 6.027037 8.803699 6.180037 8.618099 6.294037 8.432599 6.408037 8.208002 6.465027 7.944302 6.465027 7.628501 6.465027 7.364901 6.403038 7.153301 6.279037 6.944901 6.159038 6.788702 5.989027 6.684502 5.771027 6.580401 5.553027 6.528301 5.302028 6.528301 5.019028H5.625C5.625 5.420028 5.7128 5.786027 5.888599 6.118027 6.064399 6.450027 6.324799 6.714027 6.669899 6.909027 7.014899 7.107027 7.439702 7.207031 7.944302 7.207031 8.393501 7.207031 8.777599 7.127026 9.0966 6.967026 9.4156 6.811026 9.659801 6.59004 9.829102 6.30304 10.001601 6.02004 10.087799 5.688037 10.087799 5.307037 10.087799 5.099037 10.052 4.887034 9.9804 4.673035 9.9121 4.461035 9.815999 4.249025 9.692299 4.038025 9.571898 3.826025 9.430302 3.618025 9.267502 3.413025 9.108002 3.208025 8.937099 3.006037 8.754799 2.807037L6.850498 .742035H10.415001Z"/>
<path transform="matrix(1,0,0,-1,44.137605,170.24207)" d="M4.790001 .742035V.000031H.1367V.65004L2.465801 3.242035C2.752201 3.561035 2.973599 3.83204 3.129799 4.05304 3.289299 4.278039 3.399999 4.47803 3.461899 4.65303 3.526999 4.833031 3.559502 5.015028 3.559502 5.200027 3.559502 5.435028 3.510698 5.646037 3.412998 5.835037 3.318598 6.027037 3.178699 6.180037 2.993099 6.294037 2.807599 6.408037 2.583002 6.465042 2.319302 6.465042 2.003502 6.465042 1.739901 6.403038 1.528301 6.279037 1.319901 6.159038 1.163702 5.990034 1.059502 5.772034 .955402 5.554034 .903301 5.303035 .903301 5.020035H0C0 5.420035 .087799 5.786042 .263599 6.118042 .439399 6.450042 .699799 6.714042 1.044899 6.909042 1.389899 7.108042 1.814702 7.207031 2.319302 7.207031 2.768502 7.207031 3.1526 7.127033 3.4716 6.968033 3.7906 6.812033 4.034801 6.590032 4.204102 6.304031 4.376602 6.021031 4.462799 5.689029 4.462799 5.308029 4.462799 5.099029 4.427 4.888035 4.3554 4.673035 4.2871 4.461035 4.190999 4.25004 4.067299 4.03804 3.946899 3.82704 3.805302 3.61804 3.642502 3.41304 3.483002 3.20804 3.312099 3.006029 3.129799 2.808029L1.225498 .742035H4.790001ZM10.561501 2.393036V1.651031H5.424801V2.183029L8.608398 7.110031H9.345699L8.5546 5.684036 6.450199 2.393036H10.561501ZM9.570301 7.110031V.000031H8.666901V7.110031H9.570301Z"/>
<path transform="matrix(1,0,0,-1,44.137605,140.02899)" d="M4.790001 .839996V.097992H.1367V.746994L2.465801 3.339996C2.752201 3.658996 2.973599 3.928994 3.129799 4.149994 3.289299 4.374994 3.399999 4.574992 3.461899 4.750992 3.526999 4.929992 3.559502 5.111989 3.559502 5.297989 3.559502 5.531989 3.510698 5.743999 3.412998 5.932999 3.318598 6.124999 3.178699 6.277998 2.993099 6.391998 2.807599 6.505998 2.583002 6.561996 2.319302 6.561996 2.003502 6.561996 1.739901 6.500999 1.528301 6.376999 1.319901 6.255999 1.163702 6.086988 1.059502 5.868988 .955402 5.650988 .903301 5.399989 .903301 5.116989H0C0 5.517989 .087799 5.883988 .263599 6.215988 .439399 6.547988 .699799 6.810988 1.044899 7.006989 1.389899 7.204988 1.814702 7.304993 2.319302 7.304993 2.768502 7.304993 3.1526 7.224987 3.4716 7.064987 3.7906 6.908987 4.034801 6.687986 4.204102 6.400986 4.376602 6.117986 4.462799 5.785999 4.462799 5.404999 4.462799 5.196999 4.427 4.984989 4.3554 4.769989 4.2871 4.558989 4.190999 4.346986 4.067299 4.135986 3.946899 3.923986 3.805302 3.715986 3.642502 3.510986 3.483002 3.305986 3.312099 3.103999 3.129799 2.904999L1.225498 .839996H4.790001ZM9.223598 7.216995H9.301701V6.449997H9.223598C8.745098 6.449997 8.3447 6.371988 8.0224 6.215988 7.7002 6.062988 7.444598 5.855993 7.255798 5.595993 7.066998 5.338993 6.930299 5.04899 6.845699 4.72699 6.764299 4.40399 6.723598 4.076995 6.723598 3.744995V2.699997C6.723598 2.383997 6.760999 2.103985 6.835899 1.859985 6.9108 1.618985 7.013301 1.415985 7.143501 1.249985 7.273701 1.083985 7.4202 .958993 7.583 .873993 7.749 .788993 7.921498 .746994 8.100498 .746994 8.308898 .746994 8.4944 .785998 8.6572 .863998 8.8199 .945998 8.956698 1.057989 9.067299 1.200989 9.181299 1.347989 9.267499 1.519994 9.326099 1.718994 9.3847 1.916994 9.414001 2.134986 9.414001 2.372986 9.414001 2.584986 9.388 2.787986 9.335899 2.982986 9.283799 3.181986 9.2041 3.357986 9.0966 3.510986 8.9892 3.666986 8.854098 3.788999 8.691399 3.876999 8.531898 3.967999 8.341402 4.013992 8.120102 4.013992 7.869402 4.013992 7.635001 3.951988 7.416901 3.827988 7.202101 3.707988 7.024701 3.547991 6.884701 3.349991 6.748001 3.153991 6.669899 2.940991 6.650299 2.709991L6.171799 2.714996C6.217399 3.078996 6.302001 3.389988 6.425701 3.646988 6.552701 3.907988 6.708901 4.118998 6.894501 4.281998 7.083301 4.447998 7.293199 4.568997 7.524399 4.643997 7.758699 4.721997 8.006102 4.760986 8.266602 4.760986 8.621402 4.760986 8.927402 4.693989 9.184502 4.560989 9.441702 4.42699 9.653301 4.247995 9.819302 4.022995 9.985302 3.801995 10.107401 3.550996 10.185501 3.270996 10.266901 2.994996 10.307602 2.709992 10.307602 2.416992 10.307602 2.081992 10.260401 1.767991 10.166 1.474991 10.0716 1.181991 9.929999 .923988 9.741199 .702988 9.555599 .481987 9.3261 .30899 9.0527 .185989 8.7793 .061989 8.461898-.000015 8.100498-.000015 7.716398-.000015 7.3811 .077993 7.0947 .233994 6.8082 .393993 6.570601 .604988 6.381802 .868988 6.193002 1.132988 6.051401 1.425986 5.957001 1.747986 5.862601 2.069986 5.815399 2.396989 5.815399 2.728989V3.153992C5.815399 3.655992 5.865801 4.146998 5.966801 4.628998 6.067701 5.110998 6.241801 5.546997 6.489201 5.936996 6.739901 6.327996 7.086501 6.638995 7.529301 6.869995 7.972001 7.100995 8.536698 7.216995 9.223598 7.216995Z"/>
<path transform="matrix(1,0,0,-1,44.137605,109.71912)" d="M4.790001 .840057V.098053H.1367V.748055L2.465801 3.340057C2.752201 3.659057 2.973599 3.929054 3.129799 4.151054 3.289299 4.375054 3.399999 4.576053 3.461899 4.751053 3.526999 4.930053 3.559502 5.113058 3.559502 5.298058 3.559502 5.533058 3.510698 5.744052 3.412998 5.933052 3.318598 6.125052 3.178699 6.278052 2.993099 6.392052 2.807599 6.506052 2.583002 6.563057 2.319302 6.563057 2.003502 6.563057 1.739901 6.501052 1.528301 6.377052 1.319901 6.257052 1.163702 6.088056 1.059502 5.870056 .955402 5.651056 .903301 5.401057 .903301 5.118057H0C0 5.518057 .087799 5.884057 .263599 6.216057 .439399 6.548057 .699799 6.812057 1.044899 7.007057 1.389899 7.206057 1.814702 7.305054 2.319302 7.305054 2.768502 7.305054 3.1526 7.225055 3.4716 7.066055 3.7906 6.910055 4.034801 6.688054 4.204102 6.402054 4.376602 6.119054 4.462799 5.787052 4.462799 5.406052 4.462799 5.197052 4.427 4.986057 4.3554 4.771057 4.2871 4.559057 4.190999 4.348055 4.067299 4.136055 3.946899 3.925055 3.805302 3.716055 3.642502 3.511055 3.483002 3.306055 3.312099 3.104052 3.129799 2.906052L1.225498 .840057H4.790001ZM10.239201 2.022057C10.239201 1.589056 10.138301 1.221053 9.936501 .918053 9.737901 .619053 9.4677 .391054 9.1259 .235054 8.7874 .079054 8.404901 .000053 7.9785 .000053 7.552001 .000053 7.1679 .079054 6.826099 .235054 6.484299 .391054 6.214098 .619053 6.015598 .918053 5.816998 1.221053 5.717701 1.589056 5.717701 2.022057 5.717701 2.305057 5.771399 2.564057 5.878899 2.798058 5.989499 3.036057 6.144201 3.243052 6.342701 3.418053 6.544601 3.594053 6.782199 3.729059 7.055599 3.824059 7.332299 3.921059 7.636701 3.970055 7.9687 3.970055 8.404901 3.970055 8.7939 3.886057 9.1357 3.716057 9.4775 3.550057 9.745998 3.321053 9.941399 3.028053 10.139898 2.735053 10.239201 2.400056 10.239201 2.022057ZM9.331001 2.041054C9.331001 2.305054 9.273999 2.538059 9.160099 2.740059 9.046199 2.945059 8.886699 3.104056 8.681599 3.218056 8.476499 3.332056 8.2389 3.389053 7.9687 3.389053 7.692 3.389053 7.4528 3.332056 7.2509 3.218056 7.0524 3.104056 6.897702 2.945059 6.787102 2.740059 6.676402 2.538059 6.620998 2.305054 6.620998 2.041054 6.620998 1.768054 6.6748 1.534059 6.7822 1.338058 6.8929 1.146059 7.0491 .998058 7.2509 .894058 7.456 .793058 7.6985 .743057 7.9785 .743057 8.2584 .743057 8.499299 .793058 8.701099 .894058 8.9029 .998058 9.057601 1.146059 9.165001 1.338058 9.275701 1.534059 9.331001 1.768054 9.331001 2.041054ZM10.0732 5.357056C10.0732 5.012055 9.9821 4.701057 9.799801 4.424057 9.617501 4.148057 9.3684 3.929058 9.0527 3.770058 8.7369 3.610058 8.378901 3.531052 7.9785 3.531052 7.5716 3.531052 7.208599 3.610058 6.889599 3.770058 6.573799 3.929058 6.3265 4.148057 6.1474 4.424057 5.9684 4.701057 5.878899 5.012055 5.878899 5.357056 5.878899 5.770056 5.9684 6.122056 6.1474 6.412056 6.3297 6.701056 6.578701 6.923058 6.894501 7.076057 7.210201 7.229057 7.569899 7.305054 7.973598 7.305054 8.380499 7.305054 8.741802 7.229057 9.057602 7.076057 9.373302 6.923058 9.620701 6.701056 9.799801 6.412056 9.9821 6.122056 10.0732 5.770056 10.0732 5.357056ZM9.169899 5.342056C9.169899 5.580056 9.119401 5.790053 9.018501 5.972054 8.917602 6.154054 8.777598 6.298054 8.598598 6.402054 8.419599 6.509054 8.211199 6.563057 7.973598 6.563057 7.735999 6.563057 7.527598 6.512056 7.348598 6.412056 7.172799 6.314056 7.034498 6.174058 6.933498 5.992058 6.835898 5.809058 6.787102 5.593056 6.787102 5.342056 6.787102 5.098056 6.835898 4.885056 6.933498 4.703056 7.034498 4.520056 7.1744 4.379053 7.3535 4.278053 7.5325 4.177053 7.7408 4.126053 7.9785 4.126053 8.216101 4.126053 8.422798 4.177053 8.598598 4.278053 8.777598 4.379053 8.917602 4.520056 9.018501 4.703056 9.119401 4.885056 9.169899 5.098056 9.169899 5.342056Z"/>
<path transform="matrix(1,0,0,-1,44.142396,79.40808)" d="M1.4454 4.096687H2.089901C2.405601 4.096687 2.666101 4.148791 2.871101 4.252892 3.079501 4.360291 3.234103 4.505192 3.335003 4.687492 3.439203 4.872993 3.491199 5.081392 3.491199 5.312492 3.491199 5.585893 3.4457 5.815392 3.3545 6.000992 3.2634 6.186492 3.126701 6.326491 2.944401 6.420891 2.762101 6.515291 2.530999 6.562492 2.250999 6.562492 1.997099 6.562492 1.772502 6.511987 1.577202 6.411087 1.385102 6.313487 1.2338 6.173488 1.1231 5.991188 1.0157 5.808888 .962002 5.594088 .962002 5.346687H.058601C.058601 5.707987 .1498 6.036785 .3321 6.332985 .5144 6.629185 .769902 6.865185 1.098701 7.040985 1.430701 7.216785 1.814799 7.304688 2.250999 7.304688 2.680699 7.304688 3.056702 7.228188 3.378902 7.075188 3.701202 6.925388 3.951901 6.70079 4.130901 6.40139 4.309901 6.10509 4.399502 5.735692 4.399502 5.292992 4.399502 5.113892 4.357103 4.921889 4.272503 4.716789 4.191103 4.514989 4.062503 4.326191 3.886803 4.150391 3.714203 3.974591 3.489602 3.82969 3.212902 3.71579 2.936202 3.60509 2.604201 3.549789 2.216801 3.549789H1.4454V4.096687ZM1.4454 3.354492V3.896492H2.216801C2.669301 3.896492 3.043701 3.842791 3.339901 3.735291 3.636101 3.627891 3.868901 3.484687 4.038101 3.305687 4.210601 3.126587 4.331102 2.92969 4.399502 2.71479 4.471102 2.503191 4.506901 2.291686 4.506901 2.080086 4.506901 1.747986 4.449903 1.453389 4.336002 1.196289 4.225302 .939089 4.067401 .720992 3.862301 .541992 3.660501 .362892 3.422902 .227888 3.149502 .136688 2.876002 .045588 2.578201-.000008 2.255901-.000008 1.946701-.000008 1.655301 .04389 1.381901 .13179 1.111701 .21969 .872401 .346688 .664101 .512688 .455801 .681988 .293 .88869 .1758 1.13279 .0586 1.380189 0 1.661786 0 1.977486H.9034C.9034 1.730086 .957103 1.513687 1.064503 1.328087 1.175203 1.142587 1.331399 .997686 1.533199 .893486 1.738299 .792586 1.979201 .742188 2.255901 .742188 2.532601 .742188 2.7702 .789389 2.9688 .883789 3.1706 .981389 3.325201 1.127889 3.432701 1.323189 3.543301 1.518489 3.598701 1.764286 3.598701 2.060486 3.598701 2.356786 3.536801 2.599286 3.413101 2.788086 3.289401 2.980086 3.113599 3.121691 2.885799 3.212891 2.661199 3.307291 2.395901 3.354492 2.089901 3.354492H1.4454ZM10.214901 4.218689V3.134789C10.214901 2.552089 10.162802 2.060488 10.058601 1.660088 9.954501 1.259788 9.804702 .937491 9.609402 .693291 9.414102 .449191 9.178102 .271787 8.901402 .161087 8.628001 .053687 8.318702-.000008 7.973701-.000008 7.700202-.000008 7.448001 .034186 7.216801 .102486 6.985701 .170886 6.7774 .279888 6.591801 .429688 6.409501 .582687 6.2533 .78119 6.1231 1.025391 5.9929 1.269491 5.893603 1.565685 5.825203 1.914085 5.756903 2.262385 5.722702 2.669289 5.722702 3.134789V4.218689C5.722702 4.801389 5.774802 5.289686 5.878902 5.683586 5.986403 6.077486 6.1377 6.393191 6.333 6.630791 6.5284 6.871691 6.762702 7.044291 7.036201 7.148392 7.312901 7.252592 7.622101 7.304688 7.963902 7.304688 8.240602 7.304688 8.494501 7.270487 8.725601 7.202087 8.960001 7.136987 9.168302 7.031188 9.350601 6.884789 9.532901 6.741488 9.687503 6.549486 9.814503 6.308586 9.944703 6.070986 10.044001 5.779586 10.112301 5.434586 10.180701 5.089486 10.214901 4.684189 10.214901 4.218689ZM9.306702 2.988289V4.370087C9.306702 4.689087 9.2871 4.969092 9.2481 5.209892 9.2123 5.454092 9.158602 5.662392 9.087002 5.834892 9.015302 6.007492 8.924199 6.14739 8.813499 6.25489 8.7061 6.36229 8.5808 6.440389 8.4375 6.489189 8.2976 6.541289 8.139702 6.56739 7.963902 6.56739 7.749102 6.56739 7.558601 6.52669 7.392601 6.44529 7.226601 6.367189 7.086602 6.24189 6.972702 6.06929 6.862002 5.89679 6.7774 5.670587 6.7188 5.390587 6.6602 5.110687 6.630901 4.770487 6.630901 4.370087V2.988289C6.630901 2.669289 6.648801 2.387686 6.684601 2.143486 6.723701 1.899386 6.780599 1.687789 6.855499 1.508789 6.930399 1.332989 7.021502 1.188088 7.128902 1.074188 7.236403 .960288 7.3601 .87559 7.5 .82029 7.6433 .768189 7.801102 .742188 7.973701 .742188 8.195002 .742188 8.388702 .784487 8.554703 .869087 8.720703 .953787 8.859103 1.085588 8.969803 1.264587 9.083703 1.446887 9.168302 1.679691 9.223701 1.962891 9.279001 2.24929 9.306702 2.591089 9.306702 2.988289Z"/>
<path transform="matrix(1,0,0,-1,44.142396,49.097658)" d="M1.4454 4.096687H2.089901C2.405601 4.096687 2.666101 4.148787 2.871101 4.252987 3.079501 4.360387 3.234103 4.505289 3.335003 4.687489 3.439203 4.873089 3.491199 5.081388 3.491199 5.312489 3.491199 5.585989 3.4457 5.815488 3.3545 6.000988 3.2634 6.186588 3.126701 6.326487 2.944401 6.420887 2.762101 6.515287 2.530999 6.562489 2.250999 6.562489 1.997099 6.562489 1.772502 6.512086 1.577202 6.411186 1.385102 6.313486 1.2338 6.173487 1.1231 5.991287 1.0157 5.808987 .962002 5.594088 .962002 5.346687H.058601C.058601 5.708087 .1498 6.036788 .3321 6.333088 .5144 6.629288 .769902 6.865288 1.098701 7.041088 1.430701 7.216788 1.814799 7.304688 2.250999 7.304688 2.680699 7.304688 3.056702 7.228188 3.378902 7.075188 3.701202 6.925488 3.951901 6.700886 4.130901 6.401386 4.309901 6.105186 4.399502 5.735688 4.399502 5.292988 4.399502 5.113988 4.357103 4.921885 4.272503 4.716785 4.191103 4.514985 4.062503 4.326187 3.886803 4.150387 3.714203 3.974687 3.489602 3.829785 3.212902 3.715885 2.936202 3.605185 2.604201 3.549786 2.216801 3.549786H1.4454V4.096687ZM1.4454 3.354488V3.896488H2.216801C2.669301 3.896488 3.043701 3.842786 3.339901 3.735386 3.636101 3.627986 3.868901 3.484687 4.038101 3.305687 4.210601 3.126687 4.331102 2.929686 4.399502 2.714886 4.471102 2.503286 4.506901 2.291686 4.506901 2.080086 4.506901 1.748086 4.449903 1.453485 4.336002 1.196285 4.225302 .939185 4.067401 .721088 3.862301 .541988 3.660501 .362988 3.422902 .227888 3.149502 .136787 2.876002 .045588 2.578201-.000011 2.255901-.000011 1.946701-.000011 1.655301 .043985 1.381901 .131886 1.111701 .219786 .872401 .346688 .664101 .512688 .455801 .681988 .293 .888685 .1758 1.132885 .0586 1.380285 0 1.661788 0 1.977589H.9034C.9034 1.730189 .957103 1.513686 1.064503 1.328186 1.175203 1.142586 1.331399 .997785 1.533199 .893585 1.738299 .792685 1.979201 .742188 2.255901 .742188 2.532601 .742188 2.7702 .789385 2.9688 .883785 3.1706 .981485 3.325201 1.127988 3.432701 1.323288 3.543301 1.518588 3.598701 1.764385 3.598701 2.060585 3.598701 2.356785 3.536801 2.599286 3.413101 2.788086 3.289401 2.980186 3.113599 3.121787 2.885799 3.212887 2.661199 3.307287 2.395901 3.354488 2.089901 3.354488H1.4454ZM10.410202 .839886V.097687H5.756901V.747086L8.086002 3.339886C8.372402 3.658886 8.5938 3.929087 8.75 4.150387 8.9095 4.374987 9.0202 4.575188 9.0821 4.750988 9.1472 4.930088 9.179703 5.112286 9.179703 5.297886 9.179703 5.532286 9.130899 5.743886 9.033199 5.932686 8.938799 6.124686 8.798901 6.277686 8.6133 6.391586 8.4278 6.505586 8.203203 6.562489 7.939503 6.562489 7.623703 6.562489 7.360102 6.500688 7.148502 6.376987 6.940103 6.256588 6.783903 6.087286 6.679703 5.869186 6.575603 5.651086 6.523502 5.400388 6.523502 5.117188H5.620201C5.620201 5.517588 5.708001 5.883785 5.883801 6.215885 6.0596 6.547885 6.32 6.811585 6.6651 7.006886 7.0101 7.205386 7.434903 7.304688 7.939503 7.304688 8.388702 7.304688 8.7728 7.224987 9.091801 7.065487 9.410801 6.909187 9.655003 6.687886 9.824303 6.401386 9.996802 6.118186 10.083 5.786185 10.083 5.405285 10.083 5.196985 10.047201 4.985388 9.975601 4.770588 9.907301 4.558988 9.8112 4.347388 9.6875 4.135788 9.5671 3.924188 9.425503 3.715888 9.262703 3.510788 9.103203 3.305688 8.9323 3.103885 8.75 2.905285L6.845699 .839886H10.410202Z"/>
<path transform="matrix(1,0,0,-1,67.36902,259.261)" d="M445.99098 32.419008 446.44639 33.30928V33.309297L445.99098 32.419008ZM0 93.256008C-.168082 92.27023-.167689 92.270168-.166956 92.27004-.166259 92.26992-.165186 92.26974-.163793 92.2695-.161007 92.26903-.156866 92.26832-.151379 92.26739-.140404 92.26552-.124041 92.26274-.102346 92.25906-.058956 92.2517 .00576 92.240749 .091349 92.22631 .262526 92.19743 .517195 92.154628 .851725 92.09883 1.520784 91.98723 2.509298 91.82364 3.788227 91.61548 6.346069 91.19917 10.065657 90.60459 14.714663 89.89117 24.012425 88.46436 37.02897 86.562 51.905405 84.659587 81.647 80.8562 118.86476 77.047008 148.664 77.047008V79.047008C118.997249 79.047008 81.882999 82.84231 52.1591 86.643428 37.30278 88.54327 24.303202 90.443149 15.018025 91.86803 10.375563 92.580448 6.661978 93.17407 4.109515 93.58951 2.833292 93.79722 1.84737 93.96039 1.180782 94.07157 .847488 94.12717 .59403 94.16977 .424037 94.19844 .33904 94.21278 .27491 94.22364 .2321 94.2309 .210694 94.23453 .194619 94.23726 .183931 94.23908 .178587 94.23999 .174589 94.24067 .171945 94.24112 .170623 94.24134 .169658 94.24151 .168996 94.24162 .168369 94.24173 .168082 94.241779 0 93.256008ZM148.664 77.047008C163.85108 77.047008 177.07854 83.850299 189.25412 93.91132 201.41716 103.96198 212.6268 117.34657 223.76204 130.63739 234.92632 143.96288 246.01618 157.19458 258.0109 167.10614 269.99308 177.00736 282.78163 183.5122 297.32704 183.5122V185.5122C282.13996 185.5122 268.91249 178.70891 256.7369 168.64789 244.57387 158.59723 233.36423 145.21265 222.22899 131.92182 211.06472 118.596347 199.97486 105.36463 187.98014 95.453067 175.99797 85.551868 163.20943 79.047008 148.664 79.047008V77.047008ZM297.32704 183.5122C311.82243 183.5122 324.59217 176.10439 336.57945 164.31229 348.57197 152.51505 359.66944 136.4405 370.82157 119.32641 381.95149 102.2464 393.13505 84.13167 405.24555 68.40601 417.35585 52.680665 430.47273 39.233797 445.53556 31.528717L446.44639 33.309297C431.77674 40.813219 418.87763 53.9825 406.8301 69.62631 394.78288 85.26982 383.66688 103.27727 372.4972 120.418308 361.3497 137.52527 350.1475 153.77065 337.982 165.73807 325.81126 177.71063 312.56465 185.5122 297.32704 185.5122V183.5122ZM445.53556 31.528733C475.42265 16.240403 512.7246 8.617767 542.49588 4.810471 557.3925 2.905411 570.4265 1.952927 579.73757 1.476624 584.3934 1.238464 588.1193 1.119324 590.68289 1.059708 591.96469 1.029907 592.95596 1.014984 593.6276 1.007523 593.96347 1.003784 594.2194 1.001907 594.39187 1.000977 594.478 1.000504 594.5434 1.000275 594.5874 1.000153 594.6094 1.000092 594.6261 1.000061 594.6373 1.000046 594.643 1.000046 594.6473 1.000031 594.6502 1.000031 594.6517 1.000031 594.6529 1.000031 594.6536 1.000031 594.6545 1.000031 594.65499 1.000031 594.65499 2.000031 594.65499 3.000031 594.6548 3.000031 594.6543 3.000031 594.6537 3.000031 594.65286 3.000031 594.65158 3.000031 594.64907 3.000031 594.6452 3.000031 594.64 3.000046 594.62966 3.000061 594.6139 3.000092 594.5928 3.000137 594.5506 3.000259 594.48709 3.000488 594.4027 3.000946 594.234 3.001862 593.9818 3.003708 593.64987 3.007401 592.9859 3.014786 592.0027 3.029556 590.7294 3.059174 588.18258 3.118393 584.47537 3.236893 579.8397 3.474014 570.5678 3.948318 557.58566 4.897003 542.7496 6.794312 513.05538 10.591751 476.0253 18.178605 446.44639 33.30928L445.53556 31.528733Z" fill="#31b5fa"/>
<path transform="matrix(1,0,0,-1,62.392885,169.90296)" d="M4.976105 .000959C3.656605 .000959 2.391101 .365952 1.457901 1.014952 .524701 1.664952 .0003 2.545957 0 3.463957-.0004 4.382957 .523401 5.263954 1.456101 5.913954 2.388801 6.562953 3.654101 6.928953 4.973701 6.928953 6.293201 6.929953 7.559 6.564952 8.492599 5.915953 9.426299 5.266953 9.951301 4.385954 9.952301 3.467954 9.953301 2.548954 9.430202 1.667958 8.497902 1.017958 7.565702 .367958 6.300702 .001959 4.981102 .000959H4.976105Z" fill="#31b5fa"/>
<path transform="matrix(1,0,0,-1,210.434,184.62397)" d="M4.97699-.000015C3.65699-.000015 2.391993 .364977 1.457993 1.013977 .524993 1.663977 .001 2.543982 0 3.462982 0 4.381982 .524001 5.262972 1.457001 5.911972 2.389001 6.561972 3.654999 6.926979 4.973999 6.927979 6.293999 6.927979 7.558996 6.563978 8.492996 5.914978 9.426996 5.265978 9.951987 4.384973 9.952988 3.465973 9.953988 2.547973 9.431001 1.666983 8.498001 1.016983 7.566001 .365983 6.300995 .000985 4.981995-.000015H4.97699Z" fill="#31b5fa"/>
<path transform="matrix(1,0,0,-1,359.72,78.1051)" d="M4.976013 .000488C3.657013 .000488 2.391008 .365385 1.458008 1.014785 .525008 1.664285 .001 2.545084 0 3.463684 0 4.382284 .523994 5.263286 1.455994 5.913085 2.388994 6.562885 3.653999 6.928188 4.973999 6.928588 6.293999 6.929088 7.559011 6.564688 8.493011 5.915588 9.427011 5.266388 9.952003 4.385685 9.953003 3.467185 9.954003 2.548585 9.429986 1.667388 8.497986 1.017288 7.565986 .367188 6.300988 .001388 4.980988 .000488H4.976013Z" fill="#31b5fa"/>
<path transform="matrix(1,0,0,-1,507.762,230.52393)" d="M4.975983 .000959C3.656983 .000959 2.391008 .365952 1.458008 1.014952 .525008 1.664952 0 2.545957 0 3.463957 0 4.382957 .522994 5.263954 1.455994 5.913954 2.388994 6.562953 3.654029 6.928953 4.97403 6.928953 6.29303 6.929953 7.559011 6.564952 8.493011 5.915953 9.426011 5.266953 9.950995 4.385954 9.951996 3.467954 9.952996 2.548954 9.430017 1.667958 8.498016 1.017958 7.566016 .367958 6.300988 .001959 4.980988 .000959H4.975983Z" fill="#31b5fa"/>
<path transform="matrix(1,0,0,-1,657.048,260.833)" d="M4.976015-.000031C3.656014-.000031 2.391009 .364977 1.458009 1.013977 .524009 1.662977 .000001 2.543982 .000001 3.462982-.000999 4.380982 .523056 5.261972 1.456056 5.911972 2.388056 6.561972 3.654024 6.926979 4.973024 6.927979 6.293024 6.927979 7.559005 6.563978 8.492005 5.914978 9.426005 5.265978 9.951027 4.384973 9.952027 3.465973 9.953028 2.547973 9.430048 1.666991 8.498048 1.015991 7.565048 .365991 6.300019 .000969 4.981019-.000031H4.976015Z" fill="#31b5fa"/>
<path transform="matrix(1,0,0,-1,40,34)" d="M58.046899 26H2C.89543 26 0 25.10457 0 24V2C0 .89543 .89543 0 2 0H58.046899C59.151468 0 60.046899 .89543 60.046899 2V24C60.046899 25.10457 59.151468 26 58.046899 26Z" fill="#404040"/>
<path transform="matrix(1,0,0,-1,40.5,34.5)" d="M1.5 25.5H57.546899V26.5H1.5V25.5ZM57.546899 25.5C58.099184 25.5 58.546899 25.052285 58.546899 24.5H59.546899C59.546899 25.60457 58.651468 26.5 57.546899 26.5V25.5ZM58.546899 24.5V2.5H59.546899V24.5H58.546899ZM58.546899 2.5C58.546899 1.947716 58.099184 1.5 57.546899 1.5V.5C58.651468 .5 59.546899 1.39543 59.546899 2.5H58.546899ZM57.546899 1.5H1.5V.5H57.546899V1.5ZM1.5 1.5C.947715 1.5 .5 1.947716 .5 2.5H-.5C-.5 1.39543 .39543 .5 1.5 .5V1.5ZM.5 2.5V24.5H-.5V2.5H.5ZM.5 24.5C.5 25.052285 .947715 25.5 1.5 25.5V26.5C.39543 26.5-.5 25.60457-.5 24.5H.5Z" fill-opacity=".14902"/>
<path transform="matrix(1,0,0,-1,44.96881,24.140625)" d="M0 .140625V8.140625H.9687V1.000025H4.6875V.140625H0ZM6.0625 .140625V6.140625H6.984299V.140625H6.0625ZM6.5312 7.140625C6.351501 7.140625 6.196599 7.201824 6.066399 7.324224 5.938798 7.446624 5.875 7.593725 5.875 7.765625 5.875 7.937525 5.938798 8.084624 6.066399 8.207025 6.196599 8.329425 6.351501 8.390625 6.5312 8.390625 6.7109 8.390625 6.8645 8.329425 6.9921 8.207025 7.1223 8.084624 7.1875 7.937525 7.1875 7.765625 7.1875 7.593725 7.1223 7.446624 6.9921 7.324224 6.8645 7.201824 6.7109 7.140625 6.5312 7.140625ZM9.5947 3.750025V.140625H8.672802V6.140625H9.5634V5.203125H9.641602C9.782202 5.507825 9.9957 5.752625 10.2822 5.937525 10.5686 6.125025 10.938401 6.218725 11.391602 6.218725 11.797802 6.218725 12.1533 6.135425 12.458 5.968725 12.7626 5.804725 12.999599 5.554725 13.1689 5.218725 13.3382 4.885425 13.422802 4.463525 13.422802 3.953125V.140625H12.5009V3.890625C12.5009 4.362025 12.378501 4.729126 12.133701 4.992226 11.888902 5.257826 11.553 5.390625 11.1259 5.390625 10.8317 5.390625 10.568599 5.326824 10.336899 5.199224 10.107698 5.071625 9.9267 4.885425 9.7939 4.640625 9.661099 4.395825 9.5947 4.098925 9.5947 3.750025ZM17.623002 .015625C17.0449 .015625 16.5462 .143224 16.1269 .398424 15.710199 .656224 15.388601 1.015625 15.162102 1.476524 14.938102 1.940125 14.826099 2.479125 14.826099 3.093725 14.826099 3.708325 14.938102 4.250025 15.162102 4.718725 15.388601 5.190125 15.703699 5.557326 16.107399 5.820326 16.5136 6.085926 16.987603 6.218725 17.529202 6.218725 17.841702 6.218725 18.150301 6.166625 18.455002 6.062525 18.759703 5.958325 19.037098 5.789025 19.287098 5.554726 19.537098 5.322926 19.736302 5.015626 19.8847 4.632826 20.033202 4.250026 20.107403 3.778625 20.107403 3.218725V2.828125H15.482399V3.625025H19.169903C19.169903 3.963525 19.102202 4.265625 18.966702 4.531225 18.833903 4.796926 18.6438 5.006526 18.3964 5.160126 18.1516 5.313826 17.862603 5.390625 17.529202 5.390625 17.162102 5.390625 16.844399 5.299526 16.5761 5.117226 16.3105 4.937526 16.106099 4.703124 15.962799 4.414024 15.819599 4.125024 15.748001 3.815125 15.748001 3.484425V2.953125C15.748001 2.500025 15.826099 2.115925 15.982399 1.800825 16.1412 1.488325 16.361302 1.250024 16.642502 1.085924 16.923802 .924524 17.2506 .843725 17.623002 .843725 17.865202 .843725 18.083903 .877626 18.279202 .945326 18.477202 1.015626 18.647702 1.119826 18.791 1.257826 18.9342 1.398426 19.044898 1.572925 19.122998 1.781225L20.0136 1.531225C19.919899 1.229125 19.762305 .963525 19.541005 .734425 19.319605 .507824 19.0462 .330725 18.7207 .203125 18.3951 .078125 18.029202 .015625 17.623002 .015625ZM27.041005 .015625C26.478505 .015625 25.994103 .148424 25.587803 .414024 25.181603 .679724 24.869103 1.045525 24.650303 1.511724 24.431603 1.977825 24.3222 2.510425 24.3222 3.109425 24.3222 3.718725 24.434199 4.256526 24.6582 4.722626 24.884699 5.191426 25.199805 5.557326 25.603505 5.820326 26.009705 6.085926 26.483704 6.218725 27.025303 6.218725 27.447203 6.218725 27.827404 6.140625 28.166005 5.984425 28.504504 5.828125 28.781897 5.609425 28.997998 5.328125 29.214098 5.046925 29.348303 4.718725 29.400303 4.343725H28.478505C28.408205 4.617225 28.251902 4.859426 28.0097 5.070326 27.770102 5.283826 27.447205 5.390625 27.041005 5.390625 26.681605 5.390625 26.366499 5.296925 26.0957 5.109425 25.8274 4.924524 25.617802 4.662724 25.466702 4.324224 25.318303 3.988325 25.244099 3.593725 25.244099 3.140625 25.244099 2.677125 25.317004 2.273426 25.462803 1.929726 25.611304 1.585926 25.819603 1.319026 26.087803 1.128925 26.358704 .938825 26.676405 .843725 27.041005 .843725 27.280505 .843725 27.498003 .885425 27.693303 .968725 27.888602 1.052125 28.054003 1.171825 28.189404 1.328125 28.324805 1.484425 28.421204 1.671925 28.478505 1.890625H29.400303C29.348303 1.536425 29.219399 1.217424 29.0136 .933624 28.8105 .652324 28.540999 .428424 28.204998 .261724 27.871699 .097625 27.483704 .015625 27.041005 .015625ZM31.669903 3.750025V.140625H30.747998V8.140625H31.669903V5.203125H31.747998C31.888598 5.513025 32.0996 5.759125 32.380804 5.941425 32.664705 6.126326 33.0423 6.218725 33.5136 6.218725 33.9225 6.218725 34.280504 6.136725 34.587804 5.972626 34.895105 5.811226 35.1334 5.562524 35.3027 5.226524 35.4746 4.893224 35.560499 4.468725 35.560499 3.953125V.140625H34.6386V3.890625C34.6386 4.367225 34.514898 4.735724 34.267499 4.996124 34.022699 5.259124 33.682897 5.390625 33.247999 5.390625 32.945898 5.390625 32.6751 5.326824 32.435499 5.199224 32.198499 5.071625 32.010999 4.885425 31.872998 4.640625 31.737597 4.395825 31.669903 4.098925 31.669903 3.750025ZM39.0126 .000025C38.6324 .000025 38.287397 .071625 37.977499 .214825 37.6676 .360724 37.4215 .570325 37.2392 .843725 37.0569 1.119825 36.9658 1.453125 36.9658 1.843725 36.9658 2.187525 37.033506 2.466125 37.168905 2.679726 37.304304 2.895826 37.485303 3.065125 37.711904 3.187525 37.938405 3.309925 38.188405 3.401024 38.461904 3.460924 38.737905 3.523424 39.0152 3.572926 39.293905 3.609325 39.658506 3.656225 39.954099 3.691425 40.1806 3.714825 40.409799 3.740925 40.5764 3.783825 40.6806 3.843725 40.7874 3.903625 40.8408 4.007825 40.8408 4.156225V4.187525C40.8408 4.572925 40.735303 4.872424 40.524404 5.085924 40.316 5.299524 39.9996 5.406225 39.5751 5.406225 39.135 5.406225 38.789999 5.309926 38.539999 5.117226 38.289999 4.924526 38.1142 4.718725 38.0126 4.500025L37.1376 4.812525C37.2939 5.177125 37.5022 5.460924 37.7626 5.664024 38.0257 5.869824 38.3121 6.013025 38.621999 6.093725 38.934499 6.177125 39.241804 6.218725 39.543905 6.218725 39.736604 6.218725 39.958005 6.195324 40.208005 6.148424 40.460607 6.104124 40.704107 6.011724 40.938405 5.871124 41.175405 5.730424 41.372 5.518225 41.5283 5.234425 41.6845 4.950524 41.7626 4.570325 41.7626 4.093725V.140625H40.8408V.953125H40.793905C40.731405 .822925 40.627206 .683626 40.481405 .535126 40.3356 .386725 40.1416 .260426 39.899404 .156225 39.657205 .052125 39.3616 .000025 39.0126 .000025ZM39.1533 .828125C39.517904 .828125 39.8251 .899725 40.0751 1.042925 40.3277 1.186225 40.517904 1.371126 40.645505 1.597626 40.775705 1.824226 40.8408 2.062525 40.8408 2.312525V3.156225C40.8017 3.109425 40.715806 3.066425 40.583005 3.027325 40.452707 2.990925 40.301706 2.958326 40.129804 2.929726 39.9606 2.903625 39.7952 2.880225 39.6337 2.859425 39.474905 2.841125 39.345998 2.825525 39.246999 2.812525 39.007398 2.781225 38.7835 2.730426 38.5751 2.660126 38.3694 2.592426 38.2027 2.489625 38.0751 2.351524 37.9501 2.216125 37.8876 2.031225 37.8876 1.796925 37.8876 1.476524 38.0061 1.234426 38.2431 1.070326 38.4827 .908826 38.786104 .828125 39.1533 .828125ZM43.4453 .140625V6.140625H44.335905V5.234425H44.398405C44.507806 5.531224 44.7057 5.772125 44.9921 5.957026 45.2786 6.141926 45.6015 6.234425 45.960905 6.234425 46.028604 6.234425 46.1132 6.233025 46.2148 6.230425 46.316404 6.227825 46.3932 6.223925 46.4453 6.218725V5.281225C46.414 5.289025 46.342405 5.300825 46.230405 5.316425 46.121004 5.334625 46.0052 5.343725 45.8828 5.343725 45.591104 5.343725 45.330698 5.282526 45.101499 5.160126 44.874998 5.040326 44.695306 4.873726 44.562505 4.660126 44.432207 4.449225 44.3671 4.208325 44.3671 3.937525V.140625H43.4453ZM50.523405 6.140625V5.359425H47.413999V6.140625H50.523405ZM48.3203 7.578125H49.2421V1.859425C49.2421 1.598925 49.279905 1.403624 49.355405 1.273424 49.433504 1.145824 49.5325 1.059925 49.6523 1.015625 49.7747 .973925 49.9036 .953125 50.038999 .953125 50.1406 .953125 50.223897 .958325 50.288999 .968725 50.3541 .981725 50.4062 .992225 50.4453 1.000025L50.6328 .171925C50.5703 .148424 50.482999 .125025 50.371 .101524 50.259099 .075524 50.1171 .062525 49.9453 .062525 49.6848 .062525 49.4296 .118525 49.1796 .230425 48.9322 .342425 48.726499 .513026 48.562398 .742226 48.400999 .971326 48.3203 1.260425 48.3203 1.609425V7.578125Z" fill="#ffffff"/>
</svg>
