<svg width="40" height="38" viewBox="0 0 40 38" fill="none" xmlns="http://www.w3.org/2000/svg">
<path d="M19.5593 1.96147V3.7365C19.5593 4.13054 19.864 4.32741 20.1688 4.32741C20.4734 4.32741 20.7781 4.13054 20.7781 3.7365V1.96147C20.7828 1.63501 20.5126 1.36718 20.1688 1.36363C19.8249 1.36721 19.5555 1.63501 19.5593 1.96147ZM16.0077 3.48837L17.2991 4.74058C17.8752 5.29891 18.7393 4.46102 18.1632 3.90269L16.867 2.65047C16.7523 2.5361 16.5948 2.47161 16.4302 2.47159C15.8816 2.47166 15.6124 3.11951 16.0077 3.48837ZM23.4704 2.65048L22.1743 3.9027C21.5982 4.46102 22.4623 5.29891 23.0384 4.74059L24.3298 3.48837C24.7251 3.11951 24.4558 2.47166 23.9073 2.47159C23.7428 2.4716 23.5852 2.53611 23.4704 2.65048ZM11.1361 6.0909C10.4866 6.0909 9.87573 6.40643 9.50783 6.92533L3.61856 15.2304C3.49119 15.4098 3.4069 15.6169 3.37219 15.8074C2.24404 16.6035 1.88678 17.901 1.88678 18.8901V23.9197C1.88678 24.8534 2.37848 26.2516 2.83419 27.501C3.06198 28.1256 3.29397 28.7311 3.45789 29.2368C3.65113 29.8328 3.71378 30.1751 3.71378 30.3239V30.9091C3.38329 30.9178 3.10602 31.1806 3.10676 31.5012V36.225C3.10547 36.5513 3.37723 36.8169 3.71378 36.8182H13.4666C13.8031 36.8169 14.0748 36.5513 14.0736 36.225V31.5012C14.0748 31.2144 13.8541 30.9682 13.5629 30.9172C13.6399 30.7747 13.7352 30.6297 13.8617 30.4197C14.0648 30.0829 14.2977 29.6515 14.4628 29.0706L19.6641 34.7962C19.8292 35.0035 20.0406 35.0455 20.1688 35.0455C20.2968 35.0455 20.5274 34.992 20.6734 34.7962L25.8747 29.0706C26.0399 29.6515 26.2728 30.0829 26.4758 30.4197C26.6022 30.6297 26.6976 30.7747 26.7745 30.9172C26.4835 30.9682 26.2627 31.2144 26.2639 31.5012V36.225C26.2627 36.5513 26.5344 36.8169 26.871 36.8182H36.6237C36.9603 36.8169 37.232 36.5513 37.2307 36.225V31.5012C37.2315 31.1806 36.9542 30.9178 36.6237 30.9091V30.3239C36.6237 30.1751 36.6864 29.8328 36.8796 29.2368C37.0436 28.7311 37.2754 28.1256 37.5033 27.501C37.959 26.2516 38.4507 24.8534 38.4507 23.9197V18.8901C38.4507 17.901 38.0934 16.6035 36.9653 15.8074C36.9305 15.6169 36.8462 15.4098 36.7189 15.2304L30.8296 6.92533C30.4618 6.40643 29.8508 6.0909 29.2014 6.0909C23.1796 6.09425 17.1578 6.09244 11.1361 6.0909ZM17.5014 7.27496C19.2796 7.27667 21.0579 7.27572 22.836 7.27496L27.103 15.5488H13.2345L17.5014 7.27496ZM13.163 16.7318H27.1745L20.1688 32.9264L13.163 16.7318ZM4.80879 18.3141C4.50441 18.593 4.32557 19.0049 4.32557 19.5098V23.8239C4.32557 24.6119 5.54435 24.6119 5.54435 23.8239V19.5098C5.54435 19.2881 5.61045 19.1852 5.6883 19.1439C5.76615 19.1026 5.94689 19.0729 6.19177 19.1693C6.68157 19.3622 7.32996 20.0144 7.3701 21.3021V23.8193C7.3701 24.3111 7.62673 24.7021 7.89262 25.0149C8.1585 25.3278 8.46027 25.6042 8.74244 25.9128C9.26837 26.488 9.8058 27.2308 9.80889 28.5477C9.81122 29.3358 11.0308 29.3311 11.0277 28.543C11.0231 26.9116 10.3562 25.8984 9.65179 25.128C9.32542 24.771 9.02298 24.4883 8.83289 24.2647C8.64288 24.0411 8.59009 23.9182 8.59009 23.8192V22.6028L13.4332 27.9359C13.3413 28.8632 13.0846 29.3699 12.8095 29.8264C12.6169 30.146 12.3791 30.4871 12.2548 30.9078H4.93369V30.324C4.93369 29.8819 4.79826 29.4275 4.62185 28.8836C4.44566 28.3397 4.21202 27.7274 3.98628 27.1086C3.53477 25.8708 3.10669 24.6422 3.10669 23.9197V18.8901C3.10669 18.3157 3.27229 17.6024 3.73516 17.0792L4.80879 18.3141ZM36.6023 17.0792C37.0651 17.6024 37.2307 18.3156 37.2307 18.89V23.9197C37.2307 24.6421 36.8026 25.8707 36.3511 27.1085C36.1254 27.7274 35.8919 28.3397 35.7156 28.8835C35.5394 29.4274 35.4037 29.8818 35.4037 30.3239V30.9079H28.0826C27.9582 30.4872 27.7206 30.146 27.528 29.8265C27.2528 29.37 26.996 28.8633 26.9043 27.936L31.7473 22.6028V23.8193C31.7473 23.9183 31.6946 24.0411 31.5045 24.2648C31.3145 24.4884 31.012 24.7711 30.6856 25.128C29.9812 25.8984 29.3137 26.9116 29.3097 28.5431C29.3074 29.3312 30.5255 29.3358 30.5285 28.5478C30.5308 27.2309 31.069 26.4881 31.595 25.9129C31.8771 25.6043 32.1789 25.3278 32.4448 25.015C32.7107 24.7022 32.9673 24.3112 32.9673 23.8193V21.3022C33.0074 20.0145 33.6558 19.3622 34.1456 19.1694C34.3905 19.0729 34.5713 19.1027 34.6491 19.144C34.727 19.1853 34.7931 19.2882 34.7931 19.5098V23.8239C34.7931 24.612 36.0119 24.612 36.0119 23.8239V19.5098C36.0119 19.0049 35.8329 18.593 35.5286 18.3142L36.6023 17.0792Z" fill="black"/>
</svg>
